# xmcd CD database file
#
# Track frame offsets:
#	150
#	16552
#	35400
#	52250
#	66525
#	81100
#	94547
#	109307
#	124055
#	140086
#	157684
#	171216
#	188742
#	203286
#	219000
#	235947
#	250577
#	263226
#	281446
#	296087
#
# Disc length: 4143 seconds
#
# Revision: 0
# Processed by: cddbd v1.5.2PL0 Copyright (c) Steve Scherf et al.
# Submitted via: ACXtractor (MTCDDB.DLL V2003.07.15)
#
DISCID=13102d14
DTITLE=Various Artist - LBS Country collection Vol 16
DYEAR=2011
DGENRE=Country
TTITLE0=Kiandra Gold/ Brian Letton
TTITLE1=A Thousand Reasons/ Shaza Leigh
TTITLE2=A Picture of Home/ Tom Maxwell
TTITLE3=Gidgee After Rain - Lindsay Butler &Peter Simpson
TTITLE4=Barcy Moon/ Lana Ross
TTITLE5=Arijole Waltz/ Dale Duncan and Lynette Guest
TTITLE6=Some Days are Diamonds/ Jason Owen
TTITLE7=Cane Cutters Cordial/ Ashley Cook
TTITLE8=If Teardrops Were Penny's - Rachel Jillett  
TTITLE9=No Going Back/ Greg Bain
TTITLE10=Pegs Poker/ Peggy Gilchrist
TTITLE11=Walking in My Shoes/ Dale Duncan and Shaza Leigh
TTITLE12=Just a Cliche/ Lynette Guest
TTITLE13=Storms Never Last/ Noel Parlane
TTITLE14=Gentleman Joe/ Dianne Lindsay
TTITLE15=Absent Friends/ Brian Letton
TTITLE16=Dusty Old Time Ringer/ Pete Smith
TTITLE17=Spinifex Man/ Chris Dodd
TTITLE18=The Journey/ Shaza Leigh
TTITLE19=Amigos Guitar/ Lindsay Butler
EXTD=ID3G:   2 YEAR: 2011
EXTT0=
EXTT1=
EXTT2=
EXTT3=
EXTT4=
EXTT5=
EXTT6=
EXTT7=
EXTT8=
EXTT9=
EXTT10=
EXTT11=
EXTT12=
EXTT13=
EXTT14=
EXTT15=
EXTT16=
EXTT17=
EXTT18=
EXTT19=
PLAYORDER=
